# xmcd CD database file
#
# Track frame offsets:
#	150
#	18162
#	37214
#	58836
#	78374
#	112511
#	125115
#	137495
#
# Disc length: 2011 seconds
#
# Revision: 0
# Processed by: cddbd v1.5.2PL0 Copyright (c) Steve Scherf et al.
# Submitted via: CDex 1.70beta3
#
DISCID=6307d908
DTITLE=The Mitchell - Ruff Trio - After This Message
DYEAR=1965
DGENRE=Jazz
TTITLE0=Love
TTITLE1=Young Soul
TTITLE2=I Got Rhythm
TTITLE3=Improvisation On ''Solo For Unaccompanied Bass''
TTITLE4=Autumn Leaves
TTITLE5=After This Message
TTITLE6=Chou Chou
TTITLE7=The Prank
EXTD=YEAR: 1965
EXTT0=
EXTT1=
EXTT2=
EXTT3=
EXTT4=
EXTT5=
EXTT6=
EXTT7=
PLAYORDER=
